0
SECTION
2
HEADER
9
$INSUNITS
70
4
9
$ACADVER
1
AC1014
9
$HANDSEED
5
FFFF
0
ENDSEC
0
SECTION
2
TABLES
0
TABLE
2
VPORT
5
8
100
AcDbSymbolTable
0
ENDTAB
0
TABLE
2
LTYPE
5
5
100
AcDbSymbolTable
0
LTYPE
5
14
100
AcDbSymbolTableRecord
100
AcDbLinetypeTableRecord
2
BYBLOCK
70
0
0
LTYPE
5
15
100
AcDbSymbolTableRecord
100
AcDbLinetypeTableRecord
2
BYLAYER
70
0
0
ENDTAB
0
TABLE
2
LAYER
5
2
100
AcDbSymbolTable
70
2
0
LAYER
5
50
100
AcDbSymbolTableRecord
100
AcDbLayerTableRecord
2
0
70
0
6
CONTINUOUS
0
ENDTAB
0
TABLE
2
STYLE
5
3
100
AcDbSymbolTable
70
1
0
STYLE
5
11
100
AcDbSymbolTableRecord
100
AcDbTextStyleTableRecord
2
STANDARD
70
0
0
ENDTAB
0
TABLE
2
VIEW
5
6
100
AcDbSymbolTable
70
0
0
ENDTAB
0
TABLE
2
UCS
5
7
100
AcDbSymbolTable
70
0
0
ENDTAB
0
TABLE
2
APPID
5
9
100
AcDbSymbolTable
70
2
0
APPID
5
12
100
AcDbSymbolTableRecord
100
AcDbRegAppTableRecord
2
ACAD
70
0
0
ENDTAB
0
TABLE
2
DIMSTYLE
5
A
100
AcDbSymbolTable
70
1
0
ENDTAB
0
TABLE
2
BLOCK_RECORD
5
1
100
AcDbSymbolTable
70
1
0
BLOCK_RECORD
5
1F
100
AcDbSymbolTableRecord
100
AcDbBlockTableRecord
2
*MODEL_SPACE
0
BLOCK_RECORD
5
1B
100
AcDbSymbolTableRecord
100
AcDbBlockTableRecord
2
*PAPER_SPACE
0
ENDTAB
0
ENDSEC
0
SECTION
2
BLOCKS
0
BLOCK
5
20
100
AcDbEntity
100
AcDbBlockBegin
2
*MODEL_SPACE
0
ENDBLK
5
21
100
AcDbEntity
100
AcDbBlockEnd
0
BLOCK
5
1C
100
AcDbEntity
100
AcDbBlockBegin
2
*PAPER_SPACE
0
ENDBLK
5
1D
100
AcDbEntity
100
AcDbBlockEnd
0
ENDSEC
0
SECTION
2
ENTITIES
0
LWPOLYLINE
5
100
100
AcDbEntity
8
0
100
AcDbPolyline
90
48
70
1
43
0.0
10
-11.464537099687014
20
3.6120657467177999
42
-0.46644119286622004
10
-11.598408526712561
20
5.1385777396429475
10
-8.1325719898456654
20
8.6043309617215709
42
-0.082704732539598133
10
-11.386996282168457
20
11.855289098446667
10
-14.852937268737588
20
8.3894314291766463
42
-0.46619641610500495
10
-16.378984790260521
20
8.5226807467765209
42
-0.10959798793812901
10
-19.696027975344169
20
16.526315789473681
42
-0.46631879440846813
10
-18.711226576576962
20
17.699999999999999
10
-13.809779143780689
20
17.70000000000001
42
-0.082704720095353942
10
-13.809779143780684
20
22.300000000000001
10
-18.711226576576962
20
22.300000000000004
42
-0.46631879440846241
10
-19.696027975344172
20
23.473684210526315
42
-0.10940710376004699
10
-16.387639647477986
20
31.464958211193249
42
-0.46643337103370214
10
-14.861142384843053
20
31.598808582643493
10
-11.395385873523551
20
28.132968756456648
42
-0.082704731000042261
10
-8.1443144966909333
20
31.387279805949699
10
-11.61016878106701
20
34.853217407543525
42
-0.46620423544411732
10
-11.476898421901014
20
36.379279673214143
42
-0.10959148750324356
10
-3.4736842105263159
20
39.696027975344165
42
-0.46631879440847041
10
-2.2999999999999998
20
38.711226576576962
10
-2.2999999999999954
20
33.809779143780688
42
-0.082704720095354067
10
2.2999999999999998
20
33.809779143780688
10
2.2999999999999927
20
38.711226576576962
42
-0.46631879440846291
10
3.4736842105263168
20
39.696027975344172
42
-0.10960406991935893
10
11.477712986898874
20
36.37870888044516
42
-0.46619641610500701
10
11.610925619563837
20
34.852658156161858
10
8.1449846329947064
20
31.386800486891843
42
-0.082704732539598133
10
11.395864535163014
20
28.132298045215386
10
14.861701072029893
20
31.598051267294011
42
-0.46644119286622332
10
16.388209846357697
20
31.46414314424522
42
-0.1093945209876681
10
19.696027975344172
20
23.473684210526319
42
-0.46631879440846735
10
18.711226576576962
20
22.300000000000001
10
13.809779143780688
20
22.300000000000004
42
-0.082704720095354178
10
13.809779143780684
20
17.699999999999999
10
18.711226576576962
20
17.700000000000003
42
-0.46631879440846696
10
19.696027975344172
20
16.526315789473671
42
-0.10959756947591033
10
16.379003773515116
20
8.5227078373347229
42
-0.46620423544411105
10
14.852938304578318
20
8.3894741634580861
10
11.387084020202238
20
11.855411765051906
42
-0.082704731000042261
10
8.1326948186332864
20
8.6044186200538562
10
11.598451329952795
20
5.1385787938670102
42
-0.46643337103369997
10
11.464564262833425
20
3.6120847493232802
42
-0.10940102203805861
10
3.4736842105263133
20
0.30397202465583306
42
-0.46631879440846519
10
2.2999999999999998
20
1.2887734234230397
10
2.3000000000000016
20
6.1902208562193124
42
-0.082704720095354178
10
-2.2999999999999998
20
6.1902208562193151
10
-2.2999999999999998
20
1.2887734234230399
42
-0.46631879440846613
10
-3.4736842105263133
20
0.30397202465582862
42
-0.10940060270110824
0
LWPOLYLINE
5
101
100
AcDbEntity
8
0
100
AcDbPolyline
90
16
70
1
43
0.0
10
-2.2999999999999998
20
25.542824815174619
10
-2.2999999999999998
20
22.300000000000001
10
-5.5625573350349722
20
22.300000000000001
10
-3.2523513520320035
20
19.989738480924505
10
-5.5421448770016246
20
17.699999999999999
10
-2.2999999999999998
20
17.699999999999999
10
-2.300000000000002
20
14.436762743136985
10
0.00030074521354395145
20
16.737008191723728
10
2.2999999999999998
20
14.437253653440667
10
2.2999999999999998
20
17.699999999999999
10
5.5426362825413289
20
17.699999999999999
10
3.2530310344143221
20
19.989660288969283
10
5.5634262847323157
20
22.300000000000001
10
2.2999999999999998
20
22.300000000000001
10
2.2999999999999998
20
25.541956360713279
10
0.00037893716877457351
20
23.24239057817006
0
ENDSEC
0
SECTION
2
OBJECTS
0
DICTIONARY
5
C
100
AcDbDictionary
3
ACAD_GROUP
350
D
3
ACAD_MLINESTYLE
350
17
0
DICTIONARY
5
D
100
AcDbDictionary
0
DICTIONARY
5
1A
330
C
100
AcDbDictionary
0
DICTIONARY
5
17
100
AcDbDictionary
0
ENDSEC
0
EOF
